# xmcd CD database file
#
# Track frame offsets:
#	150
#	9230
#	22267
#	30957
#	40180
#	50665
#	62572
#	81577
#	89602
#	97305
#	104272
#	112932
#	123077
#	141460
#	148262
#
# Disc length: 2163 seconds
#
# Revision: 0
# Processed by: cddbd v1.4PL0 Copyright (c) Steve Scherf et al.
# Submitted via: Feurio! 1.64 - http://www.feurio.com
#
DISCID=d208710f
DTITLE=Anthony D'Atri - Anthony, The Singing Cowboy
DYEAR=1996
DGENRE=Country
TTITLE0=To The farm
TTITLE1=Me And My Cow
TTITLE2=Down By The Barn
TTITLE3=Old MacDonald
TTITLE4=Goin' To The Garden To Eat Worms
TTITLE5=No Dump
TTITLE6=Blind Pony
TTITLE7=Mary Had A Little Lamb
TTITLE8=He Started The Joke
TTITLE9=Skip To My Lou
TTITLE10=She'll Be Comin' Round The Mountain
TTITLE11=Milk Cow Boogie
TTITLE12=Laughing Song
TTITLE13=Mr. Spaceman
TTITLE14=Enjoy Talkin' To You
EXTD=2572-70001-2\r\n(c) 1996 Puck's Farm 
EXTD=Records\r\nhttp://www.pucksfarm.com/growinc
EXTT0=
EXTT1=
EXTT2=
EXTT3=
EXTT4=
EXTT5=
EXTT6=
EXTT7=
EXTT8=
EXTT9=
EXTT10=
EXTT11=
EXTT12=
EXTT13=
EXTT14=
PLAYORDER=
